HIERARCHY
ROOT Hips
{
 OFFSET 0.000000 0.000000 0.000000
 CHANNELS 6 Xposition Yposition Zposition Yrotation Xrotation Zrotation
 JOINT Chest
 {
  OFFSET 0.000000 14.374500 -0.011500
  CHANNELS 3 Yrotation Xrotation Zrotation
  JOINT Chest2
  {
   OFFSET 0.000000 9.203400 0.023400
   CHANNELS 3 Yrotation Xrotation Zrotation
   JOINT Chest3
   {
    OFFSET 0.000000 9.162700 0.000000
    CHANNELS 3 Yrotation Xrotation Zrotation
    JOINT Chest4
    {
     OFFSET 0.000000 9.153300 0.000000
     CHANNELS 3 Yrotation Xrotation Zrotation
     JOINT Neck
     {
      OFFSET 0.000000 13.353600 0.000000
      CHANNELS 3 Yrotation Xrotation Zrotation
      JOINT Head
      {
       OFFSET 0.000000 8.573800 0.049400
       CHANNELS 3 Yrotation Xrotation Zrotation
       End Site
       {
        OFFSET 0.000000 16.219200 0.026100
       }
      }
     }
     JOINT RightCollar
     {
      OFFSET -2.497100 8.876100 0.000000
      CHANNELS 3 Yrotation Xrotation Zrotation
      JOINT RightShoulder
      {
       OFFSET -12.289200 0.000000 0.000000
       CHANNELS 3 Yrotation Xrotation Zrotation
       JOINT RightElbow
       {
        OFFSET 0.000000 -28.194900 0.000000
        CHANNELS 3 Yrotation Xrotation Zrotation
        JOINT RightWrist
        {
         OFFSET 0.000000 -23.009700 0.007900
         CHANNELS 3 Yrotation Xrotation Zrotation
         End Site
         {
          OFFSET 0.000000 -17.151500 0.000000
         }
        }
       }
      }
     }
     JOINT LeftCollar
     {
      OFFSET 2.497100 8.876100 0.000000
      CHANNELS 3 Yrotation Xrotation Zrotation
      JOINT LeftShoulder
      {
       OFFSET 12.289200 0.000000 0.000000
       CHANNELS 3 Yrotation Xrotation Zrotation
       JOINT LeftElbow
       {
        OFFSET 0.000000 -28.194900 0.000000
        CHANNELS 3 Yrotation Xrotation Zrotation
        JOINT LeftWrist
        {
         OFFSET 0.000000 -23.009700 0.007900
         CHANNELS 3 Yrotation Xrotation Zrotation
         End Site
         {
          OFFSET 0.000000 -17.151500 0.000000
         }
        }
       }
      }
     }
    }
   }
  }
 }
 JOINT RightHip
 {
  OFFSET -11.777600 0.056700 0.005700
  CHANNELS 3 Yrotation Xrotation Zrotation
  JOINT RightKnee
  {
   OFFSET 0.000000 -39.966000 -0.004200
   CHANNELS 3 Yrotation Xrotation Zrotation
   JOINT RightAnkle
   {
    OFFSET 0.000000 -41.981900 0.027400
    CHANNELS 3 Yrotation Xrotation Zrotation
    JOINT RightToe
    {
     OFFSET 0.000000 -9.910600 16.950100
     CHANNELS 3 Yrotation Xrotation Zrotation
     End Site
     {
      OFFSET 0.000000 -1.461000 6.191600
     }
    }
   }
  }
 }
 JOINT LeftHip
 {
  OFFSET 11.777600 0.056700 0.005700
  CHANNELS 3 Yrotation Xrotation Zrotation
  JOINT LeftKnee
  {
   OFFSET 0.000000 -39.966000 -0.004200
   CHANNELS 3 Yrotation Xrotation Zrotation
   JOINT LeftAnkle
   {
    OFFSET 0.000000 -41.981900 0.027400
    CHANNELS 3 Yrotation Xrotation Zrotation
    JOINT LeftToe
    {
     OFFSET 0.000000 -9.910600 16.950100
     CHANNELS 3 Yrotation Xrotation Zrotation
     End Site
     {
      OFFSET 0.000000 -1.461000 6.191600
     }
    }
   }
  }
 }
}
MOTION
Frames: 11
Frame Time: 0.008333
-3.853467 130.385909 78.667900 173.974157 -42.842351 -2.625911 4.343100 23.061165 3.981857 0.532089 3.475924 0.473203 0.904018 5.618908 0.785765 3.445944 19.407945 3.179488 4.488293 16.934657 -0.492783 4.827881 -7.835889 -1.543741 -2.238222 -3.731389 1.390592 6.304514 -3.333101 -10.815761 135.776730 -71.970666 -109.784259 25.383141 -17.998832 -59.031406 -6.326123 -6.681126 -0.082684 -6.174187 -5.614216 8.399916 -89.138034 -79.610213 53.492588 -27.113803 -43.095086 59.660614 7.955999 -35.103526 2.071623 -78.615732 83.860696 -82.050437 1.302852 -25.074506 9.961172 -0.010274 -0.028254 -0.006006 -1.564231 -31.670947 -1.648372 155.745124 70.132217 165.701393 -5.901925 3.249108 -7.033195 0.007401 -0.022169 0.004326
-3.854720 130.388444 78.649065 173.993244 -42.788245 -2.635804 4.413538 23.103501 4.018380 0.491679 3.424175 0.470287 0.910918 5.594048 0.788642 3.534428 19.364503 3.215106 4.359265 16.961912 -0.466917 4.743306 -7.798973 -1.494446 -2.460144 -3.644023 1.177706 6.268304 -3.176956 -10.431980 136.300783 -71.825738 -110.083157 25.375711 -17.991782 -59.057673 -6.192012 -6.613724 0.052516 -6.147743 -5.434274 8.073967 -90.887963 -79.763383 55.012070 -27.143684 -43.073936 59.738947 7.960847 -35.143741 2.045869 -78.472110 83.864463 -81.898799 1.305219 -25.083585 9.962647 -0.014725 -0.026391 -0.008607 -1.600363 -31.697160 -1.648050 155.792679 70.158699 165.731279 -5.866086 3.225293 -7.023511 0.003575 -0.033230 0.002090
-3.852252 130.384680 78.635627 174.036682 -42.693022 -2.678031 4.405299 23.028224 4.036040 0.511796 3.436397 0.476117 0.879957 5.563549 0.785002 3.608446 19.290695 3.220561 4.277192 17.049452 -0.421170 4.643674 -7.708646 -1.426420 -2.611291 -3.509417 0.995757 6.208882 -3.009219 -10.083215 136.762148 -71.727090 -110.316604 25.368144 -17.991893 -59.075228 -6.058948 -6.517658 0.144227 -6.113201 -5.243924 7.825472 -92.431238 -79.899877 56.337861 -27.176933 -43.054573 59.801675 7.981814 -35.219260 2.035398 -78.312013 83.839542 -81.703217 1.286600 -25.104603 9.969538 -0.003168 -0.005394 -0.001852 -1.674369 -31.767451 -1.626875 155.900002 70.180785 165.825022 -5.814706 3.179760 -7.035616 0.001610 -0.010973 0.000941
-3.853760 130.376052 78.625811 174.065450 -42.571002 -2.694643 4.401451 22.923631 4.034068 0.597240 3.416775 0.472902 0.875615 5.501107 0.786440 3.597806 19.239353 3.237709 4.187990 17.178316 -0.361793 4.533638 -7.573771 -1.342324 -2.733256 -3.348037 0.841334 6.126969 -2.827466 -9.773032 137.162258 -71.669434 -110.485750 25.364438 -17.997382 -59.084681 -5.967593 -6.413611 0.189121 -6.082145 -5.057438 7.654848 -93.661839 -80.035031 57.363069 -27.207057 -43.042207 59.842037 8.007704 -35.329288 2.020199 -78.233465 83.851921 -81.639103 1.251236 -25.116834 9.985273 -0.014669 0.000672 -0.008577 -1.717754 -31.874837 -1.626561 155.953359 70.187571 165.880085 -5.794064 3.145663 -7.054252 0.006827 -0.001708 0.003992
-3.852654 130.371114 78.612452 174.096825 -42.473713 -2.720531 4.485577 22.830993 4.067760 0.534090 3.387335 0.476301 0.905905 5.431581 0.779098 3.609138 19.180160 3.248448 4.096694 17.336707 -0.296703 4.420499 -7.406505 -1.251784 -2.814989 -3.180990 0.710180 6.032296 -2.624646 -9.502424 137.487985 -71.641439 -110.583721 25.364921 -18.005147 -59.088618 -5.895376 -6.309740 0.191673 -6.059674 -4.890883 7.559162 -94.569521 -80.178873 58.065152 -27.240871 -43.034267 59.878703 8.032793 -35.414722 2.016946 -78.218289 83.832308 -81.603509 1.228925 -25.118797 9.992187 -0.010430 0.003546 -0.006099 -1.768063 -31.955888 -1.617856 155.985261 70.194093 165.914357 -5.776531 3.116858 -7.074442 0.012142 -0.002799 0.007099
-3.851908 130.372262 78.593270 174.110436 -42.419320 -2.729329 4.496045 22.770907 4.069985 0.557917 3.346244 0.469086 0.907512 5.385427 0.775298 3.629086 19.107563 3.249400 4.003164 17.510838 -0.229261 4.304874 -7.221629 -1.158326 -2.861122 -3.030266 0.607187 5.940441 -2.401280 -9.274566 137.712569 -71.635149 -110.593436 25.371932 -18.012893 -59.090291 -5.832228 -6.212998 0.167443 -6.078521 -4.759628 7.536178 -95.157679 -80.325056 58.463927 -27.286257 -43.025493 59.928354 8.064232 -35.457973 2.015986 -78.219874 83.820617 -81.591103 1.213235 -25.116017 9.995739 -0.009739 -0.001352 -0.005694 -1.814515 -31.982618 -1.619284 155.983324 70.204520 165.901969 -5.757702 3.098363 -7.091932 0.014248 -0.007536 0.008330
-3.859116 130.366848 78.581596 174.138066 -42.335150 -2.718065 4.480046 22.680284 4.036749 0.598983 3.288825 0.452065 0.898831 5.353698 0.773083 3.650439 19.038652 3.244829 3.902882 17.688779 -0.154457 4.180586 -7.032494 -1.055601 -2.891250 -2.910179 0.545095 5.862828 -2.168903 -9.088745 137.800005 -71.642750 -110.484192 25.390912 -18.016490 -59.094370 -5.785015 -6.128702 0.143657 -6.074743 -4.682935 7.568194 -95.576419 -80.459303 58.642380 -27.335527 -43.017824 59.982349 8.082545 -35.532811 1.972936 -78.249391 83.853334 -81.643360 1.206015 -25.118841 9.991898 -0.020694 -0.003674 -0.012099 -1.869220 -32.037901 -1.667525 155.909118 70.211787 165.797184 -5.744939 3.081309 -7.083871 0.004310 0.003853 0.002520
-3.860537 130.363180 78.570998 174.180102 -42.268578 -2.739216 4.490763 22.586438 4.030247 0.617159 3.260177 0.433473 0.904553 5.315280 0.766521 3.681986 18.976983 3.234846 3.820988 17.840804 -0.051132 4.015423 -6.827230 -0.942548 -2.923611 -2.829462 0.531299 5.803144 -1.940841 -8.938779 137.729046 -71.656569 -110.235285 25.418385 -18.015891 -59.099523 -5.767976 -6.060523 0.144166 -6.037728 -4.667766 7.654172 -95.904161 -80.583650 58.671008 -27.384140 -43.011960 60.030484 8.114942 -35.586837 1.977777 -78.345579 83.853944 -81.738892 1.171938 -25.119871 9.995642 -0.020547 -0.004314 -0.012013 -1.905871 -32.099112 -1.680519 155.906448 70.209302 165.795584 -5.734557 3.099973 -7.066869 0.010591 0.010387 0.006193
-3.860023 130.363061 78.558828 174.216523 -42.231940 -2.763286 4.591484 22.488186 4.017525 0.575392 3.263971 0.448433 0.914516 5.284679 0.758607 3.725781 18.926405 3.219281 3.686238 18.011677 0.044043 3.878203 -6.662713 -0.807767 -2.964940 -2.795950 0.562218 5.762886 -1.726530 -8.821084 137.509094 -71.674049 -109.851727 25.446028 -18.013508 -59.100460 -5.786161 -6.017054 0.174701 -6.015282 -4.703143 7.803739 -96.123493 -80.705982 58.580393 -27.435592 -43.002048 60.072930 8.144425 -35.618144 2.005009 -78.489927 83.850062 -81.889931 1.164087 -25.095739 9.968680 -0.018778 -0.003901 -0.010979 -1.947335 -32.118660 -1.697963 155.866963 70.197745 165.768615 -5.729924 3.086698 -7.089155 0.013072 0.012687 0.007644
-3.861159 130.363533 78.547569 174.257044 -42.207215 -2.783826 4.665421 22.424335 3.991031 0.564864 3.256061 0.453354 0.927267 5.261432 0.749789 3.777002 18.886569 3.198986 3.547669 18.179109 0.143686 3.732969 -6.512413 -0.657084 -3.008818 -2.804213 0.625728 5.735380 -1.538128 -8.738425 137.183890 -71.702238 -109.366545 25.470940 -18.009395 -59.091157 -5.839150 -6.005455 0.224363 -5.971571 -4.775821 8.008724 -96.285078 -80.824549 58.397417 -27.481271 -42.988060 60.103652 8.209903 -35.638424 2.057180 -78.801127 83.796174 -82.190995 1.102456 -25.071317 9.975205 0.003976 -0.003309 0.002325 -1.981623 -32.132513 -1.750240 155.750919 70.180339 165.658340 -5.711782 3.096715 -7.091862 -0.003497 0.007750 -0.002045
-3.862729 130.364813 78.536906 174.283554 -42.194572 -2.793430 4.732737 22.388775 3.962678 0.573236 3.242960 0.447301 0.940745 5.241261 0.740430 3.829724 18.851446 3.175720 3.425020 18.332060 0.257850 3.576287 -6.349600 -0.507717 -3.042669 -2.833144 0.707433 5.711374 -1.390978 -8.697250 136.814281 -71.757136 -108.829110 25.497488 -18.004648 -59.070208 -5.920031 -6.021989 0.276097 -5.923917 -4.869668 8.264362 -96.343100 -80.937819 58.104459 -27.516178 -42.977477 60.123984 8.252531 -35.646773 2.105899 -79.101079 83.798732 -82.530354 1.026782 -25.061649 10.021593 -0.004239 -0.006907 -0.002478 -1.996763 -32.140717 -1.778938 155.769108 70.168448 165.693421 -5.699512 3.112921 -7.107182 0.005964 0.005570 0.003487
